<?xml version="1.0" standalone="no"?>
<!DOCTYPE svg PUBLIC "-//W3C//DTD SVG 20010904//EN"
 "http://www.w3.org/TR/2001/REC-SVG-20010904/DTD/svg10.dtd">
<svg version="1.0" xmlns="http://www.w3.org/2000/svg"
 width="217.000000pt" height="202.000000pt" viewBox="0 0 217.000000 202.000000"
 preserveAspectRatio="xMidYMid meet">

<g transform="translate(0.000000,202.000000) scale(0.100000,-0.100000)"
fill="#000000" stroke="none">
<path d="M0 1010 l0 -1010 1085 0 1085 0 0 1010 0 1010 -1085 0 -1085 0 0
-1010z m1180 716 c30 -29 152 -144 270 -256 118 -112 263 -251 323 -308 143
-141 144 -133 -10 -283 -315 -306 -636 -605 -658 -613 -15 -6 -32 -6 -44 0
-35 16 -758 708 -769 735 -6 17 -6 33 2 51 12 27 735 718 764 730 32 13 67 -3
122 -56z"/>
<path d="M770 1320 c-168 -159 -304 -293 -303 -297 5 -14 608 -583 618 -583 6
0 93 79 195 176 102 97 238 226 303 287 64 61 117 115 117 122 0 13 -596 579
-613 582 -7 2 -149 -128 -317 -287z"/>
</g>
</svg>
